<?xml version="1.0" encoding="UTF-8" standalone="no"?>
<svg xmlns="http://www.w3.org/2000/svg" width="64" height="64" viewBox="0 0 64 64">
  <g transform="translate(32,32)">
    <g fill="#4a7bc2" stroke="#0b2a52" stroke-width="1.5">
      <path d="M -4 -22 L 4 -22 L 5 -16 L 10 -14 L 15 -18 L 20 -13 L 16 -8 L 18 -3 L 24 -2 L 24 6 L 18 7 L 16 12 L 20 17 L 15 22 L 10 18 L 5 20 L 4 26 L -4 26 L -5 20 L -10 18 L -15 22 L -20 17 L -16 12 L -18 7 L -24 6 L -24 -2 L -18 -3 L -16 -8 L -20 -13 L -15 -18 L -10 -14 L -5 -16 Z"/>
    </g>
    <circle r="8" fill="#ffffff" stroke="#0b2a52" stroke-width="1.5"/>
    <text text-anchor="middle" y="3" font-family="sans-serif" font-size="8" fill="#0b2a52" font-weight="700">AI</text>
  </g>
</svg>
