<?xml version="1.0" encoding="UTF-8" standalone="no"?>
<svg xmlns="http://www.w3.org/2000/svg" width="64" height="64" viewBox="0 0 64 64">
  <rect x="4" y="8" width="22" height="48" rx="3" fill="#ffffff" stroke="#0b2a52" stroke-width="1.5"/>
  <line x1="8" y1="16" x2="22" y2="16" stroke="#888" stroke-width="1"/>
  <line x1="8" y1="22" x2="22" y2="22" stroke="#888" stroke-width="1"/>
  <line x1="8" y1="28" x2="18" y2="28" stroke="#888" stroke-width="1"/>
  <line x1="8" y1="34" x2="22" y2="34" stroke="#888" stroke-width="1"/>
  <line x1="8" y1="40" x2="16" y2="40" stroke="#888" stroke-width="1"/>
  <path d="M30 32 L40 28 L40 30 L44 30" fill="none" stroke="#1e5aa8" stroke-width="2"/>
  <polygon points="44,26 50,30 44,34" fill="#1e5aa8"/>
  <rect x="38" y="42" width="22" height="14" fill="#e6d3a8" stroke="#0b2a52" stroke-width="1.5"/>
  <polygon points="36,42 49,34 62,42" fill="#c24a4a" stroke="#0b2a52" stroke-width="1.5"/>
  <rect x="46" y="48" width="6" height="8" fill="#0b2a52"/>
  <circle cx="54" cy="16" r="5" fill="#ffcc33" stroke="#0b2a52" stroke-width="1"/>
  <text x="51" y="19" font-family="sans-serif" font-size="6" fill="#0b2a52" font-weight="700">AI</text>
</svg>
